<svg xmlns="http://www.w3.org/2000/svg" viewBox="0 0 512 512" role="img" aria-label="Miami Springs Historical Society thunderbird">
  <path d="M 260.1 31.2 L 276.0 32.5 L 290.9 40.6 L 300.7 52.1 L 311.5 79.9 L 313.9 82.6 L 420.2 82.6 L 421.2 83.6 L 421.2 403.3 L 419.2 405.0 L 392.5 405.0 L 391.4 404.0 L 390.8 392.8 L 373.2 391.8 L 372.8 375.9 L 371.5 374.5 L 356.6 374.2 L 355.6 356.9 L 340.0 356.9 L 339.0 355.9 L 339.0 340.0 L 337.6 338.6 L 306.8 339.0 L 306.5 345.1 L 310.9 368.8 L 312.9 388.4 L 316.3 398.6 L 314.9 405.0 L 316.6 408.0 L 318.3 433.1 L 325.1 475.1 L 321.0 479.8 L 305.4 480.2 L 190.3 479.8 L 187.3 477.1 L 186.2 472.7 L 193.0 433.1 L 194.7 408.0 L 196.4 405.0 L 195.0 398.6 L 198.4 388.4 L 200.5 368.8 L 204.9 345.1 L 205.2 340.0 L 203.9 338.6 L 173.7 338.6 L 172.4 340.0 L 172.4 355.9 L 171.3 356.9 L 155.8 356.9 L 154.8 374.2 L 139.9 374.5 L 138.5 375.9 L 138.2 391.8 L 120.6 392.8 L 119.9 404.0 L 118.9 405.0 L 89.7 404.3 L 89.7 81.6 L 223.2 82.6 L 224.5 81.3 L 223.2 79.2 L 203.2 78.9 L 203.5 70.8 L 207.6 61.0 L 213.7 54.5 L 237.4 37.2 L 250.2 32.2 L 259.7 31.5 Z" fill="#B68A27" fill-rule="evenodd"/>
</svg>
